G04 EAGLE Gerber RS-274X export*
G75*
%MOMM*%
%FSLAX34Y34*%
%LPD*%
%INTop Copper*%
%IPPOS*%
%AMOC8*
5,1,8,0,0,1.08239X$1,22.5*%
G01*
%ADD10P,1.732040X8X292.500000*%
%ADD11C,1.676400*%
%ADD12C,1.508000*%
%ADD13C,1.422400*%
%ADD14P,1.429621X8X22.500000*%
%ADD15P,1.429621X8X112.500000*%
%ADD16C,0.152400*%

G36*
X573098Y10164D02*
X573098Y10164D01*
X573117Y10162D01*
X573219Y10184D01*
X573321Y10200D01*
X573338Y10210D01*
X573358Y10214D01*
X573447Y10267D01*
X573538Y10316D01*
X573552Y10330D01*
X573569Y10340D01*
X573636Y10419D01*
X573708Y10494D01*
X573716Y10512D01*
X573729Y10527D01*
X573768Y10623D01*
X573811Y10717D01*
X573813Y10737D01*
X573821Y10755D01*
X573839Y10922D01*
X573839Y90926D01*
X573825Y91016D01*
X573817Y91107D01*
X573805Y91137D01*
X573800Y91169D01*
X573757Y91249D01*
X573721Y91333D01*
X573695Y91365D01*
X573684Y91386D01*
X573661Y91408D01*
X573616Y91464D01*
X450164Y214916D01*
X450090Y214969D01*
X450021Y215029D01*
X449991Y215041D01*
X449965Y215060D01*
X449878Y215087D01*
X449793Y215121D01*
X449752Y215125D01*
X449729Y215132D01*
X449697Y215131D01*
X449626Y215139D01*
X10922Y215139D01*
X10902Y215136D01*
X10883Y215138D01*
X10781Y215116D01*
X10679Y215100D01*
X10662Y215090D01*
X10642Y215086D01*
X10553Y215033D01*
X10462Y214984D01*
X10448Y214970D01*
X10431Y214960D01*
X10364Y214881D01*
X10292Y214806D01*
X10284Y214788D01*
X10271Y214773D01*
X10232Y214677D01*
X10189Y214583D01*
X10187Y214563D01*
X10179Y214545D01*
X10161Y214378D01*
X10161Y10922D01*
X10164Y10902D01*
X10162Y10883D01*
X10184Y10781D01*
X10200Y10679D01*
X10210Y10662D01*
X10214Y10642D01*
X10267Y10553D01*
X10316Y10462D01*
X10330Y10448D01*
X10340Y10431D01*
X10419Y10364D01*
X10494Y10292D01*
X10512Y10284D01*
X10527Y10271D01*
X10623Y10232D01*
X10717Y10189D01*
X10737Y10187D01*
X10755Y10179D01*
X10922Y10161D01*
X573078Y10161D01*
X573098Y10164D01*
G37*
%LPC*%
G36*
X23395Y45879D02*
X23395Y45879D01*
X19690Y47414D01*
X16854Y50250D01*
X15319Y53955D01*
X15319Y73045D01*
X16854Y76750D01*
X19690Y79586D01*
X21627Y80389D01*
X21727Y80450D01*
X21827Y80510D01*
X21831Y80515D01*
X21836Y80518D01*
X21911Y80608D01*
X21987Y80697D01*
X21989Y80703D01*
X21993Y80708D01*
X22034Y80815D01*
X22079Y80925D01*
X22080Y80933D01*
X22081Y80937D01*
X22082Y80955D01*
X22097Y81092D01*
X22097Y155194D01*
X22094Y155214D01*
X22096Y155233D01*
X22074Y155335D01*
X22058Y155437D01*
X22048Y155454D01*
X22044Y155474D01*
X21991Y155563D01*
X21942Y155654D01*
X21928Y155668D01*
X21918Y155685D01*
X21839Y155752D01*
X21764Y155824D01*
X21746Y155832D01*
X21731Y155845D01*
X21717Y155850D01*
X16255Y161312D01*
X16255Y168888D01*
X21612Y174245D01*
X29188Y174245D01*
X33498Y169935D01*
X33556Y169893D01*
X33608Y169844D01*
X33655Y169822D01*
X33697Y169791D01*
X33766Y169770D01*
X33831Y169740D01*
X33883Y169734D01*
X33933Y169719D01*
X34004Y169721D01*
X34075Y169713D01*
X34126Y169724D01*
X34178Y169725D01*
X34246Y169750D01*
X34316Y169765D01*
X34361Y169792D01*
X34409Y169810D01*
X34465Y169855D01*
X34527Y169891D01*
X34561Y169931D01*
X34601Y169963D01*
X34640Y170024D01*
X34687Y170078D01*
X34706Y170127D01*
X34734Y170170D01*
X34752Y170240D01*
X34779Y170306D01*
X34787Y170378D01*
X34795Y170409D01*
X34793Y170432D01*
X34797Y170473D01*
X34797Y174244D01*
X34794Y174264D01*
X34796Y174283D01*
X34774Y174385D01*
X34758Y174487D01*
X34748Y174504D01*
X34744Y174524D01*
X34691Y174613D01*
X34642Y174704D01*
X34628Y174718D01*
X34618Y174735D01*
X34539Y174802D01*
X34464Y174874D01*
X34446Y174882D01*
X34431Y174895D01*
X34417Y174900D01*
X28955Y180362D01*
X28955Y187938D01*
X34312Y193295D01*
X41888Y193295D01*
X47245Y187938D01*
X47245Y180362D01*
X41766Y174883D01*
X41704Y174850D01*
X41690Y174836D01*
X41673Y174826D01*
X41606Y174747D01*
X41534Y174672D01*
X41526Y174654D01*
X41513Y174639D01*
X41474Y174543D01*
X41431Y174449D01*
X41429Y174429D01*
X41421Y174411D01*
X41403Y174244D01*
X41403Y170473D01*
X41414Y170402D01*
X41416Y170331D01*
X41434Y170282D01*
X41442Y170230D01*
X41476Y170167D01*
X41501Y170100D01*
X41533Y170059D01*
X41558Y170013D01*
X41610Y169964D01*
X41654Y169908D01*
X41698Y169879D01*
X41736Y169844D01*
X41801Y169813D01*
X41861Y169775D01*
X41912Y169762D01*
X41959Y169740D01*
X42030Y169732D01*
X42100Y169715D01*
X42152Y169719D01*
X42203Y169713D01*
X42274Y169728D01*
X42345Y169734D01*
X42393Y169754D01*
X42444Y169765D01*
X42505Y169802D01*
X42571Y169830D01*
X42627Y169875D01*
X42655Y169891D01*
X42670Y169909D01*
X42702Y169935D01*
X47012Y174245D01*
X54588Y174245D01*
X60067Y168766D01*
X60100Y168704D01*
X60114Y168690D01*
X60124Y168673D01*
X60203Y168606D01*
X60278Y168534D01*
X60296Y168526D01*
X60311Y168513D01*
X60407Y168474D01*
X60501Y168431D01*
X60521Y168429D01*
X60539Y168421D01*
X60706Y168403D01*
X122387Y168403D01*
X122501Y168422D01*
X122618Y168439D01*
X122623Y168441D01*
X122629Y168442D01*
X122732Y168497D01*
X122837Y168550D01*
X122841Y168555D01*
X122847Y168558D01*
X122927Y168642D01*
X123009Y168726D01*
X123013Y168732D01*
X123016Y168736D01*
X123024Y168753D01*
X123090Y168873D01*
X124090Y171287D01*
X127163Y174360D01*
X131177Y176023D01*
X135523Y176023D01*
X139537Y174360D01*
X142610Y171287D01*
X143610Y168873D01*
X143672Y168773D01*
X143732Y168673D01*
X143736Y168669D01*
X143740Y168664D01*
X143829Y168589D01*
X143918Y168513D01*
X143924Y168511D01*
X143929Y168507D01*
X144037Y168465D01*
X144147Y168421D01*
X144154Y168420D01*
X144159Y168419D01*
X144177Y168418D01*
X144313Y168403D01*
X180149Y168403D01*
X180264Y168422D01*
X180380Y168439D01*
X180386Y168441D01*
X180392Y168442D01*
X180495Y168497D01*
X180600Y168550D01*
X180604Y168555D01*
X180609Y168558D01*
X180689Y168642D01*
X180772Y168726D01*
X180775Y168732D01*
X180779Y168736D01*
X180787Y168753D01*
X180853Y168873D01*
X181555Y170568D01*
X184270Y173283D01*
X187818Y174753D01*
X205882Y174753D01*
X209430Y173283D01*
X212145Y170568D01*
X213615Y167020D01*
X213615Y163180D01*
X212145Y159632D01*
X209430Y156917D01*
X205882Y155447D01*
X187818Y155447D01*
X184270Y156917D01*
X181555Y159632D01*
X180853Y161327D01*
X180791Y161427D01*
X180731Y161527D01*
X180726Y161531D01*
X180723Y161536D01*
X180633Y161611D01*
X180544Y161687D01*
X180538Y161689D01*
X180534Y161693D01*
X180425Y161735D01*
X180316Y161779D01*
X180309Y161780D01*
X180304Y161781D01*
X180286Y161782D01*
X180149Y161797D01*
X144313Y161797D01*
X144199Y161778D01*
X144082Y161761D01*
X144077Y161759D01*
X144071Y161758D01*
X143968Y161703D01*
X143863Y161650D01*
X143859Y161645D01*
X143853Y161642D01*
X143773Y161558D01*
X143691Y161474D01*
X143687Y161468D01*
X143684Y161464D01*
X143676Y161447D01*
X143610Y161327D01*
X142610Y158913D01*
X139537Y155840D01*
X135523Y154177D01*
X131177Y154177D01*
X127163Y155840D01*
X124090Y158913D01*
X123090Y161327D01*
X123028Y161427D01*
X122968Y161527D01*
X122964Y161531D01*
X122960Y161536D01*
X122871Y161611D01*
X122782Y161687D01*
X122776Y161689D01*
X122771Y161693D01*
X122663Y161735D01*
X122553Y161779D01*
X122546Y161780D01*
X122541Y161781D01*
X122523Y161782D01*
X122387Y161797D01*
X60706Y161797D01*
X60686Y161794D01*
X60667Y161796D01*
X60565Y161774D01*
X60463Y161758D01*
X60446Y161748D01*
X60426Y161744D01*
X60337Y161691D01*
X60246Y161642D01*
X60232Y161628D01*
X60215Y161618D01*
X60148Y161539D01*
X60076Y161464D01*
X60068Y161446D01*
X60055Y161431D01*
X60050Y161417D01*
X54588Y155955D01*
X47012Y155955D01*
X42702Y160265D01*
X42644Y160307D01*
X42592Y160356D01*
X42545Y160378D01*
X42503Y160409D01*
X42434Y160430D01*
X42369Y160460D01*
X42317Y160466D01*
X42267Y160481D01*
X42196Y160479D01*
X42125Y160487D01*
X42074Y160476D01*
X42022Y160475D01*
X41954Y160450D01*
X41884Y160435D01*
X41839Y160408D01*
X41791Y160390D01*
X41735Y160345D01*
X41673Y160309D01*
X41639Y160269D01*
X41599Y160237D01*
X41560Y160176D01*
X41513Y160122D01*
X41494Y160073D01*
X41466Y160030D01*
X41448Y159960D01*
X41421Y159894D01*
X41413Y159822D01*
X41405Y159791D01*
X41407Y159768D01*
X41403Y159727D01*
X41403Y135033D01*
X41417Y134943D01*
X41425Y134852D01*
X41437Y134823D01*
X41442Y134791D01*
X41485Y134710D01*
X41521Y134626D01*
X41547Y134594D01*
X41558Y134573D01*
X41581Y134551D01*
X41610Y134515D01*
X41626Y134495D01*
X79503Y96618D01*
X79503Y81092D01*
X79522Y80977D01*
X79539Y80861D01*
X79541Y80855D01*
X79542Y80849D01*
X79597Y80747D01*
X79650Y80642D01*
X79655Y80637D01*
X79658Y80632D01*
X79742Y80552D01*
X79826Y80469D01*
X79832Y80466D01*
X79836Y80462D01*
X79853Y80455D01*
X79973Y80389D01*
X81910Y79586D01*
X84746Y76750D01*
X86281Y73045D01*
X86281Y53955D01*
X84746Y50250D01*
X81910Y47414D01*
X78205Y45879D01*
X74195Y45879D01*
X70490Y47414D01*
X67654Y50250D01*
X66119Y53955D01*
X66119Y73045D01*
X67654Y76750D01*
X70490Y79586D01*
X72427Y80389D01*
X72527Y80450D01*
X72627Y80510D01*
X72631Y80515D01*
X72636Y80518D01*
X72711Y80608D01*
X72787Y80697D01*
X72789Y80703D01*
X72793Y80708D01*
X72834Y80815D01*
X72879Y80925D01*
X72880Y80933D01*
X72881Y80937D01*
X72882Y80955D01*
X72897Y81092D01*
X72897Y93567D01*
X72883Y93657D01*
X72875Y93748D01*
X72863Y93777D01*
X72858Y93809D01*
X72815Y93890D01*
X72779Y93974D01*
X72753Y94006D01*
X72742Y94027D01*
X72719Y94049D01*
X72674Y94105D01*
X34797Y131982D01*
X34797Y159727D01*
X34786Y159798D01*
X34784Y159869D01*
X34766Y159918D01*
X34758Y159970D01*
X34724Y160033D01*
X34699Y160100D01*
X34667Y160141D01*
X34642Y160187D01*
X34590Y160236D01*
X34546Y160292D01*
X34502Y160321D01*
X34464Y160356D01*
X34399Y160387D01*
X34339Y160425D01*
X34288Y160438D01*
X34241Y160460D01*
X34170Y160468D01*
X34100Y160485D01*
X34048Y160481D01*
X33997Y160487D01*
X33926Y160472D01*
X33855Y160466D01*
X33807Y160446D01*
X33756Y160435D01*
X33695Y160398D01*
X33629Y160370D01*
X33573Y160325D01*
X33545Y160309D01*
X33530Y160291D01*
X33498Y160265D01*
X29066Y155833D01*
X29004Y155800D01*
X28990Y155786D01*
X28973Y155776D01*
X28906Y155697D01*
X28834Y155622D01*
X28826Y155604D01*
X28813Y155589D01*
X28774Y155493D01*
X28731Y155399D01*
X28729Y155379D01*
X28721Y155361D01*
X28703Y155194D01*
X28703Y81092D01*
X28722Y80977D01*
X28739Y80861D01*
X28741Y80855D01*
X28742Y80849D01*
X28797Y80747D01*
X28850Y80642D01*
X28855Y80637D01*
X28858Y80632D01*
X28942Y80552D01*
X29026Y80469D01*
X29032Y80466D01*
X29036Y80462D01*
X29053Y80455D01*
X29173Y80389D01*
X31110Y79586D01*
X33946Y76750D01*
X35481Y73045D01*
X35481Y53955D01*
X33946Y50250D01*
X31110Y47414D01*
X27405Y45879D01*
X23395Y45879D01*
G37*
%LPD*%
%LPC*%
G36*
X493295Y45879D02*
X493295Y45879D01*
X489590Y47414D01*
X486754Y50250D01*
X485219Y53955D01*
X485219Y73045D01*
X486754Y76750D01*
X489590Y79586D01*
X491527Y80389D01*
X491627Y80450D01*
X491727Y80510D01*
X491731Y80515D01*
X491736Y80518D01*
X491811Y80608D01*
X491887Y80697D01*
X491889Y80703D01*
X491893Y80708D01*
X491934Y80815D01*
X491979Y80925D01*
X491980Y80933D01*
X491981Y80937D01*
X491982Y80955D01*
X491997Y81092D01*
X491997Y131667D01*
X491983Y131757D01*
X491975Y131848D01*
X491963Y131877D01*
X491958Y131909D01*
X491915Y131990D01*
X491879Y132074D01*
X491853Y132106D01*
X491842Y132127D01*
X491819Y132149D01*
X491774Y132205D01*
X462405Y161574D01*
X462331Y161627D01*
X462262Y161687D01*
X462231Y161699D01*
X462205Y161718D01*
X462118Y161745D01*
X462033Y161779D01*
X461992Y161783D01*
X461970Y161790D01*
X461938Y161789D01*
X461867Y161797D01*
X454406Y161797D01*
X454386Y161794D01*
X454367Y161796D01*
X454265Y161774D01*
X454163Y161758D01*
X454146Y161748D01*
X454126Y161744D01*
X454037Y161691D01*
X453946Y161642D01*
X453932Y161628D01*
X453915Y161618D01*
X453848Y161539D01*
X453776Y161464D01*
X453768Y161446D01*
X453755Y161431D01*
X453750Y161417D01*
X448288Y155955D01*
X440712Y155955D01*
X435233Y161434D01*
X435200Y161496D01*
X435186Y161510D01*
X435176Y161527D01*
X435097Y161594D01*
X435022Y161666D01*
X435004Y161674D01*
X434989Y161687D01*
X434893Y161726D01*
X434799Y161769D01*
X434779Y161771D01*
X434761Y161779D01*
X434594Y161797D01*
X365951Y161797D01*
X365836Y161778D01*
X365720Y161761D01*
X365714Y161759D01*
X365708Y161758D01*
X365605Y161703D01*
X365500Y161650D01*
X365496Y161645D01*
X365491Y161642D01*
X365411Y161558D01*
X365328Y161474D01*
X365325Y161468D01*
X365321Y161464D01*
X365313Y161447D01*
X365247Y161327D01*
X364545Y159632D01*
X361830Y156917D01*
X358282Y155447D01*
X353314Y155447D01*
X353294Y155444D01*
X353275Y155446D01*
X353173Y155424D01*
X353071Y155408D01*
X353054Y155398D01*
X353034Y155394D01*
X352945Y155341D01*
X352854Y155292D01*
X352840Y155278D01*
X352823Y155268D01*
X352756Y155189D01*
X352684Y155114D01*
X352676Y155096D01*
X352663Y155081D01*
X352624Y154985D01*
X352581Y154891D01*
X352579Y154871D01*
X352571Y154853D01*
X352553Y154686D01*
X352553Y109633D01*
X352567Y109543D01*
X352575Y109452D01*
X352587Y109423D01*
X352592Y109391D01*
X352635Y109310D01*
X352671Y109226D01*
X352697Y109194D01*
X352708Y109173D01*
X352731Y109151D01*
X352776Y109095D01*
X362643Y99228D01*
X362659Y99216D01*
X362672Y99201D01*
X362759Y99145D01*
X362843Y99084D01*
X362862Y99078D01*
X362879Y99068D01*
X362979Y99042D01*
X363078Y99012D01*
X363098Y99012D01*
X363117Y99008D01*
X363220Y99016D01*
X363324Y99018D01*
X363342Y99025D01*
X363362Y99027D01*
X363457Y99067D01*
X363555Y99103D01*
X363570Y99115D01*
X363589Y99123D01*
X363720Y99228D01*
X363934Y99442D01*
X372667Y99442D01*
X378842Y93267D01*
X378842Y84533D01*
X372667Y78358D01*
X363933Y78358D01*
X357758Y84533D01*
X357758Y93266D01*
X357972Y93480D01*
X357984Y93497D01*
X357999Y93509D01*
X358055Y93596D01*
X358116Y93680D01*
X358122Y93699D01*
X358132Y93716D01*
X358158Y93816D01*
X358188Y93915D01*
X358188Y93935D01*
X358192Y93955D01*
X358184Y94058D01*
X358182Y94161D01*
X358175Y94180D01*
X358173Y94200D01*
X358133Y94295D01*
X358097Y94392D01*
X358085Y94408D01*
X358077Y94426D01*
X357972Y94557D01*
X348105Y104424D01*
X345947Y106582D01*
X345947Y154686D01*
X345944Y154706D01*
X345946Y154725D01*
X345924Y154827D01*
X345908Y154929D01*
X345898Y154946D01*
X345894Y154966D01*
X345841Y155055D01*
X345792Y155146D01*
X345778Y155160D01*
X345768Y155177D01*
X345689Y155244D01*
X345614Y155316D01*
X345596Y155324D01*
X345581Y155337D01*
X345485Y155376D01*
X345391Y155419D01*
X345371Y155421D01*
X345353Y155429D01*
X345186Y155447D01*
X340218Y155447D01*
X336670Y156917D01*
X333955Y159632D01*
X332485Y163180D01*
X332485Y167020D01*
X333955Y170568D01*
X336670Y173283D01*
X340218Y174753D01*
X358282Y174753D01*
X361830Y173283D01*
X364545Y170568D01*
X365247Y168873D01*
X365309Y168773D01*
X365369Y168673D01*
X365374Y168669D01*
X365377Y168664D01*
X365467Y168589D01*
X365556Y168513D01*
X365562Y168511D01*
X365566Y168507D01*
X365675Y168465D01*
X365784Y168421D01*
X365791Y168420D01*
X365796Y168419D01*
X365814Y168418D01*
X365951Y168403D01*
X434594Y168403D01*
X434614Y168406D01*
X434633Y168404D01*
X434735Y168426D01*
X434837Y168442D01*
X434854Y168452D01*
X434874Y168456D01*
X434963Y168509D01*
X435054Y168558D01*
X435068Y168572D01*
X435085Y168582D01*
X435152Y168661D01*
X435224Y168736D01*
X435232Y168754D01*
X435245Y168769D01*
X435250Y168783D01*
X440712Y174245D01*
X448288Y174245D01*
X453767Y168766D01*
X453800Y168704D01*
X453814Y168690D01*
X453824Y168673D01*
X453903Y168606D01*
X453978Y168534D01*
X453996Y168526D01*
X454011Y168513D01*
X454107Y168474D01*
X454201Y168431D01*
X454221Y168429D01*
X454239Y168421D01*
X454406Y168403D01*
X464918Y168403D01*
X498603Y134718D01*
X498603Y81092D01*
X498622Y80977D01*
X498639Y80861D01*
X498641Y80855D01*
X498642Y80849D01*
X498697Y80747D01*
X498750Y80642D01*
X498755Y80637D01*
X498758Y80632D01*
X498842Y80552D01*
X498926Y80469D01*
X498932Y80466D01*
X498936Y80462D01*
X498953Y80455D01*
X499073Y80389D01*
X501010Y79586D01*
X503846Y76750D01*
X505381Y73045D01*
X505381Y53955D01*
X503846Y50250D01*
X501010Y47414D01*
X497305Y45879D01*
X493295Y45879D01*
G37*
%LPD*%
%LPC*%
G36*
X52323Y65023D02*
X52323Y65023D01*
X52323Y81005D01*
X53161Y80873D01*
X54670Y80382D01*
X56083Y79662D01*
X57367Y78729D01*
X58489Y77607D01*
X59422Y76323D01*
X60142Y74910D01*
X60633Y73401D01*
X60881Y71833D01*
X60881Y65023D01*
X52323Y65023D01*
G37*
%LPD*%
%LPC*%
G36*
X522223Y65023D02*
X522223Y65023D01*
X522223Y81005D01*
X523061Y80873D01*
X524570Y80382D01*
X525983Y79662D01*
X527267Y78729D01*
X528389Y77607D01*
X529322Y76323D01*
X530042Y74910D01*
X530533Y73401D01*
X530781Y71833D01*
X530781Y65023D01*
X522223Y65023D01*
G37*
%LPD*%
%LPC*%
G36*
X522223Y61977D02*
X522223Y61977D01*
X530781Y61977D01*
X530781Y55167D01*
X530533Y53599D01*
X530042Y52090D01*
X529322Y50677D01*
X528389Y49393D01*
X527267Y48271D01*
X525983Y47338D01*
X524570Y46618D01*
X523061Y46127D01*
X522223Y45995D01*
X522223Y61977D01*
G37*
%LPD*%
%LPC*%
G36*
X52323Y61977D02*
X52323Y61977D01*
X60881Y61977D01*
X60881Y55167D01*
X60633Y53599D01*
X60142Y52090D01*
X59422Y50677D01*
X58489Y49393D01*
X57367Y48271D01*
X56083Y47338D01*
X54670Y46618D01*
X53161Y46127D01*
X52323Y45995D01*
X52323Y61977D01*
G37*
%LPD*%
%LPC*%
G36*
X40719Y65023D02*
X40719Y65023D01*
X40719Y71833D01*
X40967Y73401D01*
X41458Y74910D01*
X42178Y76323D01*
X43111Y77607D01*
X44233Y78729D01*
X45517Y79662D01*
X46930Y80382D01*
X48439Y80873D01*
X49277Y81005D01*
X49277Y65023D01*
X40719Y65023D01*
G37*
%LPD*%
%LPC*%
G36*
X510619Y65023D02*
X510619Y65023D01*
X510619Y71833D01*
X510867Y73401D01*
X511358Y74910D01*
X512078Y76323D01*
X513011Y77607D01*
X514133Y78729D01*
X515417Y79662D01*
X516830Y80382D01*
X518339Y80873D01*
X519177Y81005D01*
X519177Y65023D01*
X510619Y65023D01*
G37*
%LPD*%
%LPC*%
G36*
X48439Y46127D02*
X48439Y46127D01*
X46930Y46618D01*
X45517Y47338D01*
X44233Y48271D01*
X43111Y49393D01*
X42178Y50677D01*
X41458Y52090D01*
X40967Y53599D01*
X40719Y55167D01*
X40719Y61977D01*
X49277Y61977D01*
X49277Y45995D01*
X48439Y46127D01*
G37*
%LPD*%
%LPC*%
G36*
X518339Y46127D02*
X518339Y46127D01*
X516830Y46618D01*
X515417Y47338D01*
X514133Y48271D01*
X513011Y49393D01*
X512078Y50677D01*
X511358Y52090D01*
X510867Y53599D01*
X510619Y55167D01*
X510619Y61977D01*
X519177Y61977D01*
X519177Y45995D01*
X518339Y46127D01*
G37*
%LPD*%
%LPC*%
G36*
X134873Y65023D02*
X134873Y65023D01*
X134873Y74318D01*
X135908Y74154D01*
X137543Y73622D01*
X139075Y72842D01*
X140466Y71831D01*
X141681Y70616D01*
X142692Y69225D01*
X143472Y67693D01*
X144004Y66058D01*
X144168Y65023D01*
X134873Y65023D01*
G37*
%LPD*%
%LPC*%
G36*
X122532Y65023D02*
X122532Y65023D01*
X122696Y66058D01*
X123228Y67693D01*
X124008Y69225D01*
X125019Y70616D01*
X126234Y71831D01*
X127625Y72842D01*
X129157Y73622D01*
X130792Y74154D01*
X131827Y74318D01*
X131827Y65023D01*
X122532Y65023D01*
G37*
%LPD*%
%LPC*%
G36*
X134873Y61977D02*
X134873Y61977D01*
X144168Y61977D01*
X144004Y60942D01*
X143472Y59307D01*
X142692Y57775D01*
X141681Y56384D01*
X140466Y55169D01*
X139075Y54158D01*
X137543Y53378D01*
X135908Y52846D01*
X134873Y52682D01*
X134873Y61977D01*
G37*
%LPD*%
%LPC*%
G36*
X130792Y52846D02*
X130792Y52846D01*
X129157Y53378D01*
X127625Y54158D01*
X126234Y55169D01*
X125019Y56384D01*
X124008Y57775D01*
X123228Y59307D01*
X122696Y60942D01*
X122532Y61977D01*
X131827Y61977D01*
X131827Y52682D01*
X130792Y52846D01*
G37*
%LPD*%
%LPC*%
G36*
X369823Y65023D02*
X369823Y65023D01*
X369823Y74042D01*
X372667Y74042D01*
X378842Y67867D01*
X378842Y65023D01*
X369823Y65023D01*
G37*
%LPD*%
%LPC*%
G36*
X357758Y65023D02*
X357758Y65023D01*
X357758Y67867D01*
X363933Y74042D01*
X366777Y74042D01*
X366777Y65023D01*
X357758Y65023D01*
G37*
%LPD*%
%LPC*%
G36*
X369823Y52958D02*
X369823Y52958D01*
X369823Y61977D01*
X378842Y61977D01*
X378842Y59133D01*
X372667Y52958D01*
X369823Y52958D01*
G37*
%LPD*%
%LPC*%
G36*
X363933Y52958D02*
X363933Y52958D01*
X357758Y59133D01*
X357758Y61977D01*
X366777Y61977D01*
X366777Y52958D01*
X363933Y52958D01*
G37*
%LPD*%
%LPC*%
G36*
X446023Y65023D02*
X446023Y65023D01*
X446023Y72645D01*
X448288Y72645D01*
X453645Y67288D01*
X453645Y65023D01*
X446023Y65023D01*
G37*
%LPD*%
%LPC*%
G36*
X435355Y65023D02*
X435355Y65023D01*
X435355Y67288D01*
X440712Y72645D01*
X442977Y72645D01*
X442977Y65023D01*
X435355Y65023D01*
G37*
%LPD*%
%LPC*%
G36*
X446023Y54355D02*
X446023Y54355D01*
X446023Y61977D01*
X453645Y61977D01*
X453645Y59712D01*
X448288Y54355D01*
X446023Y54355D01*
G37*
%LPD*%
%LPC*%
G36*
X440712Y54355D02*
X440712Y54355D01*
X435355Y59712D01*
X435355Y61977D01*
X442977Y61977D01*
X442977Y54355D01*
X440712Y54355D01*
G37*
%LPD*%
%LPC*%
G36*
X520699Y63499D02*
X520699Y63499D01*
X520699Y63501D01*
X520701Y63501D01*
X520701Y63499D01*
X520699Y63499D01*
G37*
%LPD*%
%LPC*%
G36*
X444499Y63499D02*
X444499Y63499D01*
X444499Y63501D01*
X444501Y63501D01*
X444501Y63499D01*
X444499Y63499D01*
G37*
%LPD*%
%LPC*%
G36*
X368299Y63499D02*
X368299Y63499D01*
X368299Y63501D01*
X368301Y63501D01*
X368301Y63499D01*
X368299Y63499D01*
G37*
%LPD*%
%LPC*%
G36*
X133349Y63499D02*
X133349Y63499D01*
X133349Y63501D01*
X133351Y63501D01*
X133351Y63499D01*
X133349Y63499D01*
G37*
%LPD*%
%LPC*%
G36*
X50799Y63499D02*
X50799Y63499D01*
X50799Y63501D01*
X50801Y63501D01*
X50801Y63499D01*
X50799Y63499D01*
G37*
%LPD*%
D10*
X368300Y88900D03*
X368300Y63500D03*
D11*
X133350Y63500D03*
X133350Y165100D03*
D12*
X25400Y71040D02*
X25400Y55960D01*
X50800Y55960D02*
X50800Y71040D01*
X76200Y71040D02*
X76200Y55960D01*
D13*
X189738Y165100D02*
X203962Y165100D01*
X342138Y165100D02*
X356362Y165100D01*
D12*
X495300Y71040D02*
X495300Y55960D01*
X520700Y55960D02*
X520700Y71040D01*
D14*
X50800Y165100D03*
X38100Y184150D03*
X25400Y165100D03*
D15*
X444500Y63500D03*
X444500Y165100D03*
D16*
X25400Y165100D02*
X25400Y63500D01*
X50800Y165100D02*
X133350Y165100D01*
X196850Y165100D01*
X349250Y165100D02*
X444500Y165100D01*
X368300Y88900D02*
X349250Y107950D01*
X349250Y165100D01*
X444500Y165100D02*
X463550Y165100D01*
X495300Y133350D01*
X495300Y63500D01*
X76200Y63500D02*
X76200Y95250D01*
X38100Y133350D01*
X38100Y184150D01*
M02*
